<?xml version="1.0" encoding="utf-8"?>
<!-- Generator: Adobe Illustrator 27.5.0, SVG Export Plug-In . SVG Version: 6.00 Build 0)  -->
<svg version="1.1" xmlns="http://www.w3.org/2000/svg" xmlns:xlink="http://www.w3.org/1999/xlink" x="0px" y="0px"
	 viewBox="0 0 500 500" style="enable-background:new 0 0 500 500;" xml:space="preserve">
<g id="BACKGROUND">
	<rect style="fill:#54D3FF;" width="500" height="500"/>
</g>
<g id="OBJECTS">
	<g>
		<g>
			<g>
				<g>
					<polyline style="fill:#FFFFFF;" points="55.19,62.703 55.19,71.236 59.864,71.262 52.018,83.05 52.018,72.47 47.603,72.47 
						55.19,62.703 					"/>
				</g>
				<g>
					<g>
						<g>
							<rect x="43.019" y="45.563" style="fill:#FFFFFF;" width="21.387" height="2.639"/>
						</g>
					</g>
					<g>
						<g>
							<g>
								<g>
									<path style="fill:#FFFFFF;" d="M44.868,52.395h0.535c0.141,0,0.255-0.114,0.255-0.255V41.626
										c0-0.141-0.114-0.255-0.255-0.255h-0.535c-0.728,0-1.319,0.59-1.319,1.319v8.386C43.55,51.804,44.14,52.395,44.868,52.395z
										"/>
								</g>
							</g>
							<g>
								<g>
									<path style="fill:#FFFFFF;" d="M47.398,53.652h0.849c0.418,0,0.757-0.339,0.757-0.757V40.871
										c0-0.418-0.339-0.757-0.757-0.757h-0.849c-0.96,0-1.739,0.779-1.739,1.739v10.06
										C45.659,52.873,46.437,53.652,47.398,53.652z"/>
								</g>
							</g>
						</g>
						<g>
							<g>
								<path style="fill:#FFFFFF;" d="M42.742,48.902h0.32v-4.039h-0.32c-0.52,0-0.942,0.422-0.942,0.942v2.155
									C41.8,48.48,42.222,48.902,42.742,48.902z"/>
							</g>
						</g>
					</g>
					<g>
						<g>
							<g>
								<g>
									<path style="fill:#FFFFFF;" d="M62.599,52.395h-0.535c-0.141,0-0.255-0.114-0.255-0.255V41.626
										c0-0.141,0.114-0.255,0.255-0.255h0.535c0.728,0,1.319,0.59,1.319,1.319v8.386C63.918,51.804,63.327,52.395,62.599,52.395z
										"/>
								</g>
							</g>
							<g>
								<g>
									<path style="fill:#FFFFFF;" d="M60.07,53.652h-0.848c-0.418,0-0.757-0.339-0.757-0.757V40.871
										c0-0.418,0.339-0.757,0.757-0.757h0.848c0.96,0,1.739,0.779,1.739,1.739v10.06C61.809,52.874,61.03,53.652,60.07,53.652z"
										/>
								</g>
							</g>
						</g>
						<g>
							<g>
								<path style="fill:#FFFFFF;" d="M64.726,48.902h-0.32v-4.039h0.32c0.52,0,0.942,0.422,0.942,0.942v2.155
									C65.668,48.481,65.246,48.902,64.726,48.902z"/>
							</g>
						</g>
					</g>
				</g>
				<g>
					<path style="fill:#FFFFFF;" d="M62.069,122.33c0,0-1.227-3.017-4.091-3.324c-2.864-0.307-4.244,2.045-4.244,2.045
						s-1.381-2.352-4.244-2.045c-2.864,0.307-4.091,3.324-4.091,3.324s-1.278,3.273,1.637,6.597
						c2.915,3.324,6.699,5.267,6.699,5.267s3.784-1.943,6.699-5.267C63.348,125.603,62.069,122.33,62.069,122.33z"/>
				</g>
				<g>
					<g>
						<path style="fill:#FFFFFF;" d="M60.146,96.855c0.004-0.093,0.007-0.186,0.009-0.28c0.056-4.001-3.672-6.882-7.551-6.2
							c-3.984,0.701-6.135,4.864-4.983,8.606c0.405,1.313,1.115,2.45,1.738,3.661c0.626,1.217,1.222,2.458,1.842,3.68
							c0.734,1.448,1.469,2.895,2.203,4.343c0.165,0.326,0.631,0.326,0.797,0c0.946-1.865,1.893-3.729,2.839-5.594
							C58.356,102.478,60.009,99.838,60.146,96.855z M53.803,100.652c-2.048,0-3.708-1.66-3.708-3.708
							c0-2.048,1.66-3.708,3.708-3.708c2.048,0,3.708,1.66,3.708,3.708C57.511,98.992,55.851,100.652,53.803,100.652z"/>
					</g>
				</g>
			</g>
			<g>
				
					<text transform="matrix(1 0 0 1 74.2944 78.2691)" style="fill:#FFFFFF; font-family:'Metropolis-Medium'; font-size:17.5094px;">Energy</text>
				<g>
					
						<text transform="matrix(1 0 0 1 74.2944 52.3492)" style="fill:#FFFFFF; font-family:'Metropolis-Medium'; font-size:17.5094px;">Strength</text>
				</g>
				
					<text transform="matrix(1 0 0 1 74.2944 131.8248)" style="fill:#FFFFFF; font-family:'Metropolis-Medium'; font-size:17.5094px;">Beats</text>
				<g>
					
						<text transform="matrix(1 0 0 1 74.2944 105.9049)" style="fill:#FFFFFF; font-family:'Metropolis-Medium'; font-size:17.5094px;">Gps</text>
				</g>
			</g>
		</g>
		<g>
			<ellipse style="fill:#61C2FF;" cx="250" cy="427.118" rx="154.635" ry="36.532"/>
			<g>
				<g>
					<path style="fill:#D96C6C;" d="M219.673,300.209c0,0-23.83,30.613-40.907,31.52c0,0-2.491,22.887,17.651,29.804
						c20.142,6.917,58.327-23.248,63.217-33.596L219.673,300.209z"/>
					<path style="fill:#D96262;" d="M321.048,172.08c0,0,1.592,14.818-2.13,30.401c0,0-10.203,43.505-21.326,61.811
						c-2.963,4.875-5.861,9.782-8.504,14.839c-6.607,12.644-17.931,33.128-24.564,38.458c0,0-2.404,5.454,0.076,9.747
						c0,0,2.723,8.917-3.786,19.021c-6.509,10.104-18.127,11.203-18.127,11.203s-10.066,1.486-13.098-2.374l10.197-8.368
						c0,0,1.705,3.587,7.271,0.321c5.566-3.266,10.925-14.607,2.46-23.115l-36.156-17.432c0,0-13.674,3.25-15.379,14.93l0.748,2.087
						l-10.942,6.275c0,0-2.589-9.2,4.219-18.469c0,0,6.777-10.671,20.616-12.802c0,0,4.623-0.243,10.73-9.496
						c6.107-9.253,23.728-39.204,23.728-39.204s18.574-39.306,22.241-57.342c0,0,6.176-31.418,3.303-40.752
						c0,0,12.469-15.876,25.271-11.643C310.699,144.409,316.301,147.794,321.048,172.08z"/>
					<path style="fill:#EB7575;" d="M216.079,123.42c0.061-0.028,0.123-0.057,0.186-0.086c16.747-7.725,35.924-8.297,53.16-1.734
						c11.249,4.284,26.119,11.233,39.975,21.758c0,0,11.575,7.433,11.714,31.358l-2.268-1.072c0,0-2.148-17.473-9.798-24.037
						c0,0-0.166-0.209-0.487-0.558c-6.19-6.737-16.471-7.712-23.948-2.44c-3.965,2.796-9.05,7.156-14.879,13.9
						c-10.955,12.674-47.849,83.099-63.97,114.291c-5.856,11.33-11.109,22.96-15.666,34.872c-1.225,3.203-2.147,5.768-2.328,6.674
						c-0.631,3.17-10.016,32.204,5.101,40.215c0.152,0.081,0.304,0.16,0.455,0.238c9.981,5.173,21.997,4.394,31.324-1.882
						c11.002-7.402,29.39-20.095,30.861-23.208l1.612,1.542c0,0-18.848,19.071-24.737,22.554c-1.227,0.726-2.453,1.453-3.636,2.25
						c-4.54,3.059-14.925,9.035-25.292,7.844c0,0-1.002,0.359-5.31-0.811c-2.159-0.586-4.265-1.333-6.331-2.191
						c-5.917-2.458-21.224-9.07-30.694-15.47c-1.512-1.022-3.027-2.025-4.563-3.012c-5.366-3.445-17.907-12.203-22.117-21.274
						c-5.414-11.663-7.262-38.027-7.262-38.027s-2.813-17.717,2.76-27.309c5.207-8.963,74.373-117.764,83.43-132.008
						C214.031,124.759,214.962,123.939,216.079,123.42z"/>
					<path style="fill:#262626;" d="M238.969,126.897c0,0-14.753-9.736-34.591,1.527c-4.215,2.393-7.994,5.473-11.341,8.978
						c-3.523,3.689-8.406,9.332-10.469,14.178c-1.006,2.363-2.021,4.723-3.224,6.993l-49.039,92.588c0,0-10.563,22.354,2.367,41.838
						c2.13,3.209,5.112,5.736,8.643,7.273c9.735,4.239,31.414,9.003,49.096-20.708l55.743-101.573
						c4.609-8.399,6.837-17.962,6.002-27.507C251.402,141.871,248.183,132.499,238.969,126.897z"/>
					<path style="fill:#1F1F1F;" d="M252.313,155.302c-10.653,22.325-29.112,45.377-53.729,64.977
						c-22.911,18.241-47.541,30.613-70.309,36.578c-2.261,7.89-4.524,22.698,4.397,36.142c2.13,3.209,5.112,5.736,8.643,7.273
						c9.735,4.239,31.414,9.003,49.096-20.708l55.743-101.573C249.987,171.007,252.166,163.217,252.313,155.302z"/>
					<path style="fill:#D96464;" d="M251.63,322.383c-9.583,8.522-25.21,15.512-43.521,18.475
						c-10.171,1.646-19.947,1.85-28.65,0.841c1.494,7.068,5.672,15.958,16.959,19.834c20.142,6.917,58.327-23.248,63.217-33.596
						L251.63,322.383z"/>
					<g>
						<g id="XMLID_6_">
							<g>
								<path style="fill:#FFFFFF;" d="M183.282,177.52l11.864-3.427c3.871-1.166,5.533-2.454,6.388-4.262
									c1.015-2.147,0.031-4.18-1.823-5.055c-2.218-1.048-4.512-0.565-7.182,0.801l-1.492-4.899
									c3.782-2.176,7.516-2.623,11.191-0.887c4.833,2.284,6.74,7.333,4.444,12.192c-1.638,3.466-4.226,5.515-9.747,6.915
									l-5.865,1.699l9.633,4.552l-2.368,5.011l-17.18-8.119L183.282,177.52z"/>
								<path style="fill:#FFFFFF;" d="M215.427,174.368l-5.173,0.92l-0.101-4.841l9.276-1.976l3.906,1.846l-12.23,25.882
									l-4.899-2.315L215.427,174.368z"/>
							</g>
						</g>
						<g id="XMLID_1_">
							<g>
								<path style="fill:#FFFFFF;" d="M173.764,214.799l-11.09-5.24l1.566-4.514l18.218-11.3l5.925,2.8l-7.513,15.898l3.013,1.424
									l-2.207,4.671l-3.013-1.423l-2.492,5.274l-4.899-2.315L173.764,214.799z M175.971,210.128l4.735-10.021l-11.158,6.986
									L175.971,210.128z"/>
								<path style="fill:#FFFFFF;" d="M183.19,221.42l4.732-2.557c0.816,2.644,2.332,4.835,4.517,5.868
									c2.549,1.204,4.957,0.222,6.007-2.001c1.068-2.26,0.158-4.534-2.325-5.707c-1.721-0.813-3.48-0.861-5.204-0.385
									l-2.565-3.056l6.936-13.82l15.062,7.118l-2.368,5.011l-10.56-4.99l-2.838,5.664c1.553-0.372,3.33-0.363,5.184,0.514
									c4.039,1.909,6.126,6.49,3.633,11.764c-2.599,5.5-7.863,7.299-13.292,4.733C186.302,227.776,184.17,224.832,183.19,221.42z"
									/>
							</g>
						</g>
					</g>
					<path style="fill:#EB6767;" d="M255.511,331.711c-1.471,3.113-19.859,15.806-30.861,23.208
						c-9.328,6.276-21.343,7.055-31.324,1.882c-0.151-0.078-0.302-0.158-0.455-0.238c-15.117-8.01-5.732-37.044-5.101-40.215
						c0.18-0.906,1.102-3.471,2.328-6.674c1.852-4.84,3.824-9.631,5.899-14.377c-5.089,3.908-10.593,7.559-16.498,10.857
						c-15.149,8.462-30.89,13.557-45.723,15.422c0.217,0.544,0.437,1.073,0.667,1.567c4.211,9.071,16.752,17.829,22.118,21.274
						c1.536,0.986,3.051,1.99,4.563,3.012c9.471,6.4,24.777,13.012,30.694,15.469c2.066,0.858,4.172,1.605,6.331,2.192
						c4.308,1.17,5.31,0.811,5.31,0.811c10.367,1.191,20.752-4.785,25.292-7.844c1.183-0.797,2.408-1.524,3.636-2.25
						c5.89-3.482,24.737-22.554,24.737-22.554L255.511,331.711z"/>
					<path style="fill:#EB6767;" d="M267.214,163.784c0.945-1.326,1.791-2.431,2.52-3.274c5.829-6.743,10.914-11.104,14.879-13.9
						c7.477-5.273,17.757-4.298,23.948,2.44c0.321,0.349,0.487,0.558,0.487,0.558c7.65,6.563,9.798,24.037,9.798,24.037l2.268,1.072
						c-0.139-23.926-11.714-31.358-11.714-31.358c-12.911-9.808-26.7-16.508-37.623-20.842c0.923,7.949,0.745,16.742-0.75,25.852
						C270.137,153.793,268.836,158.958,267.214,163.784z"/>
					<path style="fill:#D95959;" d="M264.601,327.336c-2.48-4.293-0.076-9.747-0.076-9.747c6.633-5.329,17.957-25.814,24.564-38.458
						c2.642-5.056,5.541-9.963,8.504-14.838c11.124-18.306,21.326-61.811,21.326-61.811c3.722-15.583,2.13-30.401,2.13-30.401
						c-2.171-11.104-4.523-17.832-7.657-22.276c1.346,21.889-4.23,49.08-16.989,76.082c-22.902,48.465-60.968,79.447-88.711,73.914
						c-10.518,3.484-15.683,11.614-15.683,11.614c-6.808,9.269-4.219,18.469-4.219,18.469l10.942-6.275l-0.748-2.087
						c1.704-11.68,15.379-14.93,15.379-14.93l36.156,17.432c8.465,8.509,3.106,19.849-2.46,23.115
						c-5.566,3.266-7.271-0.322-7.271-0.322l-10.197,8.368c3.031,3.86,13.098,2.374,13.098,2.374s11.618-1.1,18.127-11.203
						C267.324,336.253,264.601,327.336,264.601,327.336z"/>
					<path style="opacity:0.08;fill:#FFFFFF;" d="M252.156,150.485c-0.265-3.031-0.846-6.154-1.875-9.175l-68.549,12.214
						c-0.743,1.708-1.515,3.402-2.388,5.049l-6.735,12.717l79.636-14.19C252.371,154.904,252.349,152.695,252.156,150.485z"/>
					<path style="opacity:0.08;fill:#FFFFFF;" d="M205.875,251.386l-79.319,14.133c-0.535,4.741-0.479,10.263,0.993,15.963
						l68.508-12.207L205.875,251.386z"/>
					<polygon style="opacity:0.08;fill:#FFFFFF;" points="238.455,192.021 153.623,207.137 147.555,218.594 232.143,203.522 					
						"/>
					<g>
						<path style="fill:#D24B48;" d="M228.668,145.944l0.351,0.158l0.291,4.393l3.48-2.699l0.351,0.158l-2.165,4.815l-0.351-0.158
							l1.837-4.086l-3.48,2.699l-0.291-4.394l-1.837,4.086l-0.351-0.158L228.668,145.944z"/>
						<path style="fill:#D24B48;" d="M232.79,151.402c0.463-1.03,1.712-1.505,2.729-1.048c1.016,0.457,1.484,1.704,1.021,2.734
							c-0.463,1.031-1.709,1.515-2.725,1.058C232.798,153.689,232.327,152.433,232.79,151.402z M236.189,152.93
							c0.381-0.848,0.005-1.885-0.815-2.253c-0.827-0.372-1.853,0.035-2.234,0.883c-0.385,0.855-0.008,1.892,0.819,2.264
							C234.779,154.193,235.805,153.786,236.189,152.93z"/>
						<path style="fill:#D24B48;" d="M240.549,154.241l-1.059,2.355l-0.344-0.154l1.036-2.306c0.284-0.631,0.051-1.275-0.573-1.555
							c-0.652-0.293-1.351-0.051-1.625,0.559l-1.04,2.313l-0.343-0.154l1.629-3.624l0.343,0.154l-0.281,0.624
							c0.382-0.342,0.963-0.418,1.51-0.172C240.596,152.636,240.905,153.449,240.549,154.241z"/>
					</g>
					<g>
						<g>
							<g>
								<path style="fill:#05C49B;" d="M209.9,143.281l-6.963-3.267c-0.459-0.215-0.658-0.764-0.442-1.223l1.627-3.467
									c0.215-0.459,0.764-0.657,1.223-0.442l6.963,3.267c0.459,0.215,0.658,0.764,0.442,1.223l-1.627,3.467
									C210.908,143.298,210.359,143.497,209.9,143.281z M205.195,135.204c-0.282-0.132-0.619-0.011-0.751,0.271l-1.627,3.467
									c-0.132,0.282-0.011,0.619,0.271,0.751l6.963,3.267c0.282,0.132,0.619,0.011,0.751-0.271l1.627-3.467
									c0.132-0.282,0.01-0.618-0.271-0.751L205.195,135.204z"/>
							</g>
						</g>
						<g>
							<path style="fill:#05C49B;" d="M212.316,143.061l-0.809-0.38c-0.089-0.042-0.128-0.148-0.086-0.237l1.215-2.59
								c0.042-0.089,0.148-0.128,0.237-0.086l0.809,0.379c0.089,0.042,0.127,0.148,0.086,0.237l-1.216,2.591
								C212.511,143.064,212.405,143.103,212.316,143.061z"/>
						</g>
						<g>
							<path style="fill:#05C49B;" d="M205.478,136.835l-0.58,0.075l-0.029-0.347l0.896-0.143l0.307,0.144l-1.209,2.577l-0.382-0.18
								L205.478,136.835z"/>
							<path style="fill:#05C49B;" d="M206.004,138.102c0.366-0.781,1.079-1.119,1.728-0.815c0.642,0.301,0.84,1.068,0.474,1.848
								c-0.368,0.785-1.085,1.122-1.726,0.821C205.83,139.651,205.635,138.887,206.004,138.102z M207.816,138.952
								c0.271-0.578,0.169-1.121-0.248-1.316c-0.42-0.197-0.907,0.069-1.178,0.647c-0.271,0.578-0.166,1.126,0.254,1.323
								C207.06,139.801,207.545,139.53,207.816,138.952z"/>
							<path style="fill:#05C49B;" d="M208.608,139.324c0.366-0.781,1.079-1.119,1.728-0.815c0.642,0.301,0.84,1.068,0.474,1.848
								c-0.368,0.785-1.085,1.122-1.726,0.821C208.435,140.873,208.24,140.109,208.608,139.324z M210.42,140.174
								c0.271-0.578,0.169-1.121-0.248-1.316c-0.42-0.197-0.907,0.07-1.178,0.647c-0.271,0.578-0.166,1.126,0.254,1.323
								C209.665,141.023,210.149,140.752,210.42,140.174z"/>
						</g>
					</g>
					<g>
						<g>
							<path style="fill:#D24B48;" d="M162.74,232.246c0,0,0.229-2.074-1.091-2.908c-1.321-0.834-2.646,0.252-2.646,0.252
								s-0.029-1.713-1.519-2.182c-1.49-0.468-2.924,1.048-2.924,1.048s-1.529,1.657-1.015,4.298
								c0.514,2.641,1.835,4.657,1.835,4.657s2.392-0.296,4.739-1.612C162.465,234.484,162.74,232.246,162.74,232.246z"/>
						</g>
						<g style="opacity:0.45;">
							<path style="fill:#FFFFFF;" d="M164.315,238.21c0.283-0.569,0.93-0.778,1.573-0.663c-0.407-0.459-0.571-1.055-0.316-1.57
								c0.363-0.732,1.309-0.847,2.076-0.432c0.779,0.421,1.225,1.299,0.861,2.03c-0.269,0.541-0.856,0.713-1.414,0.626
								c0.457,0.488,0.667,1.16,0.389,1.722c-0.377,0.758-1.35,0.91-2.226,0.436C164.375,239.883,163.939,238.968,164.315,238.21z
								 M167.075,239.669c0.282-0.569-0.143-1.254-0.694-1.57c-0.559-0.285-1.348-0.256-1.63,0.312
								c-0.262,0.528,0.063,1.202,0.705,1.55C166.092,240.304,166.813,240.197,167.075,239.669z M168.067,237.388
								c0.245-0.495-0.041-1.13-0.618-1.443c-0.578-0.312-1.235-0.186-1.48,0.307c-0.265,0.536,0.119,1.139,0.613,1.439
								C167.108,237.943,167.805,237.916,168.067,237.388z"/>
							<path style="fill:#FFFFFF;" d="M167.723,241.109l2.398-0.583c0.918-0.224,1.416-0.548,1.645-1.009
								c0.283-0.569,0.045-1.221-0.493-1.512c-0.506-0.274-1.064-0.214-1.62,0.078l-0.174-0.413
								c0.665-0.361,1.353-0.402,1.996-0.054c0.786,0.425,1.11,1.33,0.717,2.124c-0.303,0.609-0.873,0.961-1.923,1.219l-1.88,0.468
								l2.409,1.303l-0.206,0.413l-3.058-1.654L167.723,241.109z"/>
							<path style="fill:#FFFFFF;" d="M175.818,240.068l1.987,1.074c0.721,0.39,0.988,1.145,0.651,1.821
								c-0.245,0.496-0.66,0.7-1.15,0.693c0.382,0.508,0.475,1.117,0.223,1.625c-0.369,0.745-1.184,0.974-1.956,0.556l-2.065-1.116
								L175.818,240.068z M175.681,245.388c0.584,0.316,1.185,0.152,1.45-0.383c0.265-0.535,0.046-1.136-0.539-1.453l-1.558-0.842
								l-0.911,1.834L175.681,245.388z M176.738,243.126c0.513,0.277,1.038,0.13,1.274-0.343c0.231-0.467,0.03-1.007-0.496-1.291
								l-1.481-0.8l-0.803,1.618L176.738,243.126z"/>
							<path style="fill:#FFFFFF;" d="M180.087,242.377l1.831,0.99c0.916,0.496,1.307,1.481,0.88,2.341
								c-0.427,0.861-1.42,1.087-2.336,0.592l-1.415-0.766l-0.855,1.721l-0.415-0.224L180.087,242.377z M180.596,245.848
								c0.747,0.404,1.467,0.279,1.787-0.365c0.323-0.65,0.006-1.338-0.742-1.742l-1.344-0.727l-1.045,2.106L180.596,245.848z"/>
							<path style="fill:#FFFFFF;" d="M184.348,244.681l0.415,0.226l0.047,4.252l3.355-2.412l0.415,0.224l-2.31,4.653l-0.415-0.224
								l1.852-3.732l-3.354,2.411l-0.048-4.251l-1.852,3.732l-0.416-0.226L184.348,244.681z"/>
						</g>
					</g>
					<g style="opacity:0.29;">
						<path style="fill:#FFFFFF;" d="M155.944,299.137c-5.6,0-10.304-1.521-13.311-2.827c-3.334-1.448-6.16-3.858-8.173-6.97
							c-11.864-18.35-1.928-39.878-1.826-40.093l40.01-75.763c1.499-2.839,2.943-5.77,4.339-8.604l1.094-2.217
							c6.785-13.706,20.235-31.306,35.808-35.8c7.589-2.19,14.982-1.131,21.976,3.148c7.347,4.496,11.475,12.093,12.27,22.581
							c0.678,8.947-1.368,18.077-5.919,26.4l-53.033,97.001C178.226,294.499,165.721,299.137,155.944,299.137z M221.486,126.551
							c-2.435,0-4.897,0.358-7.382,1.075c-15.324,4.423-28.602,21.828-35.316,35.389l-1.093,2.215
							c-1.399,2.839-2.845,5.775-4.35,8.625l-40.002,75.747c-0.092,0.195-9.837,21.333,1.784,39.306
							c1.927,2.98,4.632,5.287,7.822,6.673c10.015,4.35,29.25,7.541,45.537-19.982l53.026-96.989
							c4.477-8.189,6.491-17.165,5.824-25.959c-0.774-10.219-4.776-17.608-11.892-21.963
							C230.942,127.933,226.269,126.551,221.486,126.551z"/>
					</g>
					<ellipse style="fill:#1C1C1C;" cx="149.087" cy="279.951" rx="9.87" ry="10.57"/>
					
						<ellipse style="opacity:0.29;fill:none;stroke:#FFFFFF;stroke-width:0.25;stroke-miterlimit:10;" cx="149.087" cy="279.951" rx="8.39" ry="8.985"/>
					<g>
						<g>
							<g>
								<g>
									
										<rect x="147.055" y="248.497" transform="matrix(0.4968 -0.8679 0.8679 0.4968 -144.9969 255.191)" style="fill:#24ABFF;" width="1.021" height="8.272"/>
								</g>
							</g>
							<g>
								<g>
									<g>
										<g>
											<path style="fill:#24ABFF;" d="M143.537,252.784l0.18,0.103c0.047,0.027,0.108,0.011,0.135-0.037l2.02-3.529
												c0.027-0.047,0.011-0.107-0.037-0.135l-0.18-0.103c-0.245-0.14-0.556-0.055-0.696,0.189l-1.611,2.815
												C143.208,252.333,143.293,252.644,143.537,252.784z"/>
										</g>
									</g>
									<g>
										<g>
											<path style="fill:#24ABFF;" d="M144.145,253.692l0.285,0.163c0.141,0.08,0.319,0.032,0.4-0.109l2.31-4.036
												c0.08-0.14,0.032-0.32-0.109-0.4l-0.285-0.163c-0.323-0.185-0.734-0.073-0.918,0.25l-1.933,3.377
												C143.71,253.097,143.822,253.508,144.145,253.692z"/>
										</g>
									</g>
								</g>
								<g>
									<g>
										<path style="fill:#24ABFF;" d="M143.494,251.203l0.108,0.062l0.776-1.356l-0.107-0.061
											c-0.175-0.1-0.397-0.039-0.497,0.135l-0.414,0.723C143.259,250.881,143.32,251.103,143.494,251.203z"/>
									</g>
								</g>
							</g>
							<g>
								<g>
									<g>
										<g>
											<path style="fill:#24ABFF;" d="M149.489,256.191l-0.18-0.103c-0.047-0.027-0.064-0.087-0.037-0.135l2.02-3.529
												c0.027-0.047,0.087-0.064,0.135-0.037l0.18,0.103c0.245,0.14,0.329,0.452,0.189,0.696l-1.611,2.815
												C150.045,256.246,149.733,256.331,149.489,256.191z"/>
										</g>
									</g>
									<g>
										<g>
											<path style="fill:#24ABFF;" d="M148.398,256.127l-0.285-0.163c-0.14-0.08-0.189-0.259-0.109-0.4l2.31-4.036
												c0.08-0.14,0.259-0.189,0.4-0.109l0.285,0.163c0.322,0.185,0.434,0.596,0.25,0.918l-1.933,3.377
												C149.132,256.2,148.721,256.312,148.398,256.127z"/>
										</g>
									</g>
								</g>
								<g>
									<g>
										<path style="fill:#24ABFF;" d="M150.874,255.428l-0.107-0.062l0.776-1.356l0.107,0.062c0.175,0.1,0.235,0.323,0.135,0.497
											l-0.414,0.723C151.271,255.467,151.049,255.527,150.874,255.428z"/>
									</g>
								</g>
							</g>
						</g>
						<g>
							<g>
								<path style="fill:#05C49B;" d="M163.693,260.853c0.019-0.03,0.037-0.061,0.055-0.092c0.764-1.323,0.118-2.947-1.243-3.409
									c-1.397-0.476-2.857,0.529-3.189,1.981c-0.116,0.51-0.103,1.015-0.131,1.529c-0.028,0.517-0.07,1.036-0.101,1.554
									c-0.037,0.613-0.074,1.226-0.111,1.839c-0.008,0.138,0.14,0.221,0.253,0.142c0.649-0.453,1.297-0.906,1.946-1.359
									C162.075,262.408,163.093,261.823,163.693,260.853z M160.969,260.99c-0.651-0.364-0.868-1.213-0.486-1.895
									c0.382-0.682,1.219-0.94,1.87-0.576c0.651,0.364,0.869,1.213,0.486,1.895S161.62,261.354,160.969,260.99z"/>
							</g>
						</g>
						<g>
							<polyline style="fill:#EEE853;" points="178.035,263.618 176.323,267.24 177.847,267.973 172.916,271.764 175.038,267.274 
								173.594,266.591 178.035,263.618 							"/>
						</g>
					</g>
				</g>
				<g>
					<g>
						<path style="fill:#D2423F;" d="M235.334,279.047v-7.242c0-1.12,0.908-2.029,2.029-2.029h32.435
							c1.12,0,2.029,0.909,2.029,2.029v7.242H235.334z"/>
					</g>
					<g style="opacity:0.24;">
						<path style="fill:#FFFFFF;" d="M196.171,279.047c0-0.305,0.247-0.551,0.551-0.551h109.157c0.305,0,0.551,0.247,0.551,0.551
							c0,0.305-0.247,0.551-0.551,0.551H196.723C196.418,279.599,196.171,279.352,196.171,279.047z"/>
					</g>
					<g>
						<path style="fill:#555555;" d="M120.928,313.774c-4.002,0.371-7.04,3.34-7.04,6.882v37.141v4.905v35.373
							c0,3.579,3.101,6.567,7.151,6.891l54.161,4.333v-46.597v-4.905v-49.049L120.928,313.774z"/>
					</g>
					<g>
						<path style="fill:#4A4A4A;" d="M139.592,368.897c-11.991-18.123-19.538-37.036-22.403-53.869
							c-2.006,1.261-3.301,3.32-3.301,5.628v37.141v4.905v35.373c0,3.579,3.101,6.567,7.151,6.891l54.161,4.333v-2.287
							C162.58,397.833,150.133,384.829,139.592,368.897z"/>
					</g>
					<g>
						<g>
							<path style="fill:#3D3D3D;" d="M156.217,334.743c0-3.901-3.162-7.063-7.063-7.063h-35.267v14.126h35.267
								C153.055,341.806,156.217,338.644,156.217,334.743z"/>
						</g>
						<g>
							<path style="fill:#3D3D3D;" d="M156.217,383.302c0-3.901-3.162-7.063-7.063-7.063h-35.267v14.126h35.267
								C153.055,390.365,156.217,387.203,156.217,383.302z"/>
						</g>
					</g>
					<g>
						<path style="fill:#555555;" d="M379.917,404.271c3.522-0.371,6.195-3.34,6.195-6.882v-37.141v-4.905v-35.373
							c0-3.579-2.729-6.567-6.293-6.891l-47.661-4.333v46.597v4.905v49.05L379.917,404.271z"/>
					</g>
					<g>
						<path style="fill:#4A4A4A;" d="M337.596,309.241l-5.438-0.494v46.597v4.905v49.05l47.759-5.027
							c1.429-0.15,2.715-0.734,3.743-1.606c-7.983-10.383-15.898-22.562-23.173-36.011
							C349.452,346.254,341.676,326.227,337.596,309.241z"/>
					</g>
					<g>
						<g>
							<path style="fill:#3D3D3D;" d="M343.783,383.302c0,3.901,3.162,7.063,7.063,7.063h35.267v-14.126h-35.267
								C346.945,376.239,343.783,379.401,343.783,383.302z"/>
						</g>
						<g>
							<path style="fill:#3D3D3D;" d="M343.783,334.743c0,3.901,3.162,7.063,7.063,7.063h35.267V327.68h-35.267
								C346.945,327.68,343.783,330.842,343.783,334.743z"/>
						</g>
					</g>
					<g>
						<path style="fill:#D24B48;" d="M172.747,422.386V295.659c0-11.735,9.513-21.247,21.247-21.247h121.821
							c11.734,0,21.247,9.513,21.247,21.247v126.726c0,11.735-9.513,21.247-21.247,21.247H193.994
							C182.26,443.633,172.747,434.12,172.747,422.386z"/>
					</g>
					<g>
						<path style="fill:#D2403D;" d="M245.507,356.612c-18.534-27.874-32.348-56.197-40.964-82.2h-10.549
							c-11.734,0-21.247,9.513-21.247,21.247v126.726c0,11.735,9.513,21.247,21.247,21.247h121.821c3.283,0,6.38-0.766,9.155-2.096
							C298.204,422.783,269.914,393.318,245.507,356.612z"/>
					</g>
					<g>
						<path style="fill:#262626;" d="M199.77,284.222h110.27c9.507,0,17.213,7.707,17.213,17.213V416.61
							c0,9.507-7.707,17.213-17.213,17.213H199.77c-9.507,0-17.213-7.707-17.213-17.213V301.435
							C182.557,291.929,190.264,284.222,199.77,284.222z"/>
					</g>
					<path style="fill:#1C1C1C;" d="M327.253,413.669V304.376c0-8.831-5.689-16.316-13.595-19.041V432.71
						C321.564,429.986,327.253,422.5,327.253,413.669z"/>
					<path style="fill:#1C1C1C;" d="M203.412,304.376v109.293c0,8.831,5.689,16.316,13.595,19.041V285.336
						C209.1,288.06,203.412,295.545,203.412,304.376z"/>
					<path style="fill:#1F1F1F;" d="M245.507,356.613c-16.228-24.406-28.836-49.155-37.506-72.391h-5.29
						c-11.131,0-20.154,9.023-20.154,20.154v109.293c0,11.131,9.023,20.154,20.154,20.154h104.388c2.196,0,4.305-0.363,6.284-1.012
						C290.174,414.175,266.416,388.057,245.507,356.613z"/>
					<g style="opacity:0.24;">
						<path style="fill:#FFFFFF;" d="M184.458,308.747c0-0.044,0.006-0.089,0.016-0.134c4.952-19.808,22.432-20.037,22.607-20.037
							h85.836c14.738,0,27.197,9.831,27.322,9.93c0.236,0.191,0.276,0.538,0.086,0.775c-0.19,0.238-0.537,0.277-0.775,0.087
							c-0.122-0.097-12.29-9.689-26.633-9.689h-85.836c-0.684,0.001-16.799,0.248-21.537,19.202
							c-0.074,0.296-0.374,0.475-0.669,0.401C184.625,309.219,184.458,308.994,184.458,308.747z"/>
					</g>
					<g style="opacity:0.19;">
						<path style="fill:#FFFFFF;" d="M310.717,426.466c0-0.222,0.134-0.431,0.353-0.515c8.456-3.253,14.362-12.122,14.362-21.569
							v-95.635c0-0.305,0.247-0.551,0.551-0.551c0.305,0,0.551,0.247,0.551,0.551v95.635c0,9.893-6.196,19.186-15.068,22.599
							c-0.284,0.109-0.603-0.032-0.713-0.317C310.729,426.598,310.717,426.531,310.717,426.466z"/>
					</g>
					<g style="opacity:0.14;">
						<path style="fill:#FFFFFF;" d="M210.209,427.692c0-0.305,0.247-0.551,0.551-0.551h90.742c0.305,0,0.551,0.246,0.551,0.551
							c0,0.305-0.246,0.551-0.551,0.551H210.76C210.455,428.243,210.209,427.997,210.209,427.692z"/>
					</g>
					<g style="opacity:0.09;">
						<path style="fill:#FFFFFF;" d="M334.761,423.629c-1.643,4.722-4.404,9.249-8.2,12.603c-1.324,1.169-12.005,8.111-12.288,3.537
							c-0.097-1.566,2.322-2.596,3.421-3.236c5.735-3.337,9.036-8.89,11.868-14.684c0.591-1.209,1.569-2.587,3.004-2.803
							c0.637-0.096,1.325,0.079,1.788,0.526C335.354,420.539,335.179,422.428,334.761,423.629z"/>
					</g>
					<g style="opacity:0.09;">
						<path style="fill:#FFFFFF;" d="M334.621,294.393c-1.62-4.656-4.343-9.121-8.087-12.428
							c-1.305-1.153-11.839-7.999-12.118-3.488c-0.096,1.544,2.29,2.56,3.374,3.191c5.655,3.29,8.911,8.766,11.704,14.48
							c0.583,1.192,1.547,2.551,2.962,2.764c0.628,0.094,1.307-0.078,1.764-0.519C335.207,297.44,335.033,295.577,334.621,294.393z"
							/>
					</g>
					<g>
						<g>
							<path style="fill:#05C49B;" d="M266.026,303.528l9.617,12.414c3.189,4.023,5.397,5.299,7.752,5.299
								c2.797,0,4.465-2.355,4.465-5.103c0-3.287-1.668-5.79-4.465-8.243l4.465-4.612c4.22,3.336,6.575,7.605,6.575,13.051
								c0,7.163-4.416,12.365-10.746,12.365c-4.514,0-7.998-1.963-12.266-7.85l-4.76-6.133v14.278h-6.526v-25.465H266.026z"/>
							<path style="fill:#05C49B;" d="M285.554,340.671l-3.582-5.74l5.103-2.895l6.771,10.107v5.79h-33.708v-7.262H285.554z"/>
						</g>
						<g>
							<path style="fill:#05C49B;" d="M222.882,313.341v-16.437l5.594-0.687l21.196,15.603v8.783h-20.706v4.465h-6.084v-4.465
								h-6.869v-7.262H222.882z M228.966,313.341h13.052l-13.052-9.518V313.341z"/>
							<path style="fill:#05C49B;" d="M220.576,328.552l5.103,4.269c-2.404,2.502-3.975,5.593-3.975,8.831
								c0,3.778,2.258,6.133,5.152,6.133c2.944,0,4.906-2.404,4.906-6.084c0-2.551-0.834-4.71-2.208-6.526l1.962-4.858l18.204,0.491
								v22.325h-6.526v-15.652l-7.457-0.196c1.177,1.669,2.06,3.827,2.06,6.575c0,5.986-3.827,11.138-10.696,11.138
								c-7.164,0-11.727-5.348-11.727-13.395C215.375,335.962,217.436,331.693,220.576,328.552z"/>
						</g>
					</g>
					<path style="fill:#1C1C1C;" d="M182.557,304.376v109.293c0,9.252,6.242,17.028,14.738,19.396V284.98
						C188.799,287.348,182.557,295.125,182.557,304.376z"/>
					<g>
						<g>
							<path style="fill:#D24B48;" d="M193.211,301.488v0.385l-3.888,2.067l3.888,2.067v0.384h-5.279v-0.384h4.48l-3.888-2.067
								l3.888-2.067h-4.48v-0.385H193.211z"/>
							<path style="fill:#D24B48;" d="M189.923,307.486c1.129,0,2.075,0.945,2.075,2.06c0,1.114-0.946,2.052-2.075,2.052
								c-1.13,0-2.083-0.938-2.083-2.052C187.84,308.431,188.793,307.486,189.923,307.486z M189.923,311.213
								c0.929,0,1.721-0.769,1.721-1.668c0-0.907-0.792-1.675-1.721-1.675c-0.938,0-1.73,0.768-1.73,1.675
								C188.193,310.444,188.985,311.213,189.923,311.213z"/>
							<path style="fill:#D24B48;" d="M190.514,315.726h-2.582v-0.377h2.528c0.692,0,1.183-0.476,1.183-1.16
								c0-0.715-0.507-1.253-1.176-1.253h-2.536v-0.376h3.973v0.376h-0.684c0.469,0.208,0.776,0.707,0.776,1.307
								C191.998,315.111,191.383,315.726,190.514,315.726z"/>
							<path style="fill:#D24B48;" d="M193.304,320.432h-5.371v-0.377h0.807c-0.561-0.307-0.899-0.853-0.899-1.529
								c0-0.991,0.922-1.798,2.083-1.798c1.16,0,2.075,0.807,2.075,1.798c0,0.676-0.339,1.222-0.891,1.529h2.197V320.432z
								 M189.923,320.055c1.007,0,1.721-0.607,1.721-1.452c0-0.822-0.768-1.483-1.721-1.483c-0.96,0-1.73,0.661-1.73,1.483
								C188.193,319.448,188.908,320.055,189.923,320.055z"/>
							<path style="fill:#D24B48;" d="M190.353,324.783h-2.42v-0.376h0.638c-0.477-0.3-0.73-0.953-0.73-1.514
								c0-0.829,0.507-1.437,1.276-1.437c0.776,0,1.314,0.661,1.314,1.583c0,0.438-0.108,0.93-0.262,1.368h0.184
								c0.623,0,1.299-0.3,1.299-1.215c0-0.399-0.146-0.829-0.353-1.198l0.315-0.154c0.261,0.484,0.384,0.984,0.384,1.391
								C191.998,324.222,191.314,324.783,190.353,324.783z M189.177,324.407h0.669c0.13-0.392,0.238-0.861,0.238-1.314
								c0-0.737-0.4-1.268-0.96-1.268c-0.553,0-0.93,0.492-0.93,1.122C188.193,323.523,188.516,324.253,189.177,324.407z"/>
							<path style="fill:#D24B48;" d="M186.68,325.792l0.353,0.092c-0.077,0.169-0.123,0.353-0.123,0.53
								c0,0.315,0.123,0.569,0.37,0.715l0.537,0.231l4.089-1.752v0.414l-3.62,1.538l3.62,1.475v0.407l-4.512-1.852
								c-0.576-0.238-0.837-0.615-0.845-1.169C186.549,326.2,186.595,325.969,186.68,325.792z"/>
						</g>
						<g style="opacity:0.45;">
							<path style="fill:#FFFFFF;" d="M187.755,393.357l0.323,0.332c-0.693,0.485-1.074,1.131-1.074,1.948
								c0,0.931,0.637,1.662,1.454,1.662c0.826,0,1.282-0.693,1.282-1.824v-0.626h0.457v0.636c-0.01,1.017,0.465,1.673,1.272,1.673
								c0.77,0,1.378-0.722,1.378-1.587c0-0.704-0.361-1.283-1.054-1.787l0.294-0.342c0.779,0.589,1.216,1.293,1.216,2.166
								c0,1.121-0.788,2.024-1.776,2.024c-0.779,0-1.32-0.465-1.521-1.131c-0.161,0.732-0.722,1.273-1.567,1.273
								c-1.054,0-1.89-0.941-1.89-2.138C186.549,394.706,186.985,393.936,187.755,393.357z"/>
							<path style="fill:#FFFFFF;" d="M189.931,398.879c1.976,0,3.373,1.065,3.373,2.575c0,1.511-1.396,2.575-3.373,2.575
								c-1.986,0-3.382-1.064-3.382-2.575C186.549,399.944,187.945,398.879,189.931,398.879z M189.931,403.554
								c1.71,0,2.917-0.865,2.917-2.1c0-1.226-1.207-2.1-2.917-2.1c-1.71,0-2.926,0.874-2.926,2.1
								C187.005,402.689,188.221,403.554,189.931,403.554z"/>
							<path style="fill:#FFFFFF;" d="M191.935,410.143c-0.769,0-1.273-0.618-1.273-1.273c0-0.741,0.56-1.245,1.226-1.245
								c0.732-0.01,1.282,0.56,1.282,1.263C193.171,409.668,192.582,410.143,191.935,410.143z M191.888,408.139
								c-0.438,0-0.779,0.323-0.779,0.74c0,0.428,0.351,0.751,0.817,0.751c0.352,0,0.799-0.209,0.799-0.751
								C192.724,408.385,192.296,408.139,191.888,408.139z"/>
							<path style="fill:#FFFFFF;" d="M189.931,410.866c1.834,0,3.373,1.529,3.373,3.344c0,0.903-0.38,1.739-0.998,2.347
								l-0.332-0.332c0.542-0.523,0.874-1.235,0.874-2.015c0-1.558-1.34-2.869-2.917-2.869c-1.587,0-2.926,1.311-2.926,2.869
								c0,0.779,0.332,1.492,0.874,2.015l-0.333,0.332c-0.608-0.608-0.997-1.444-0.997-2.347
								C186.549,412.395,188.097,410.866,189.931,410.866z"/>
						</g>
					</g>
					<g style="opacity:0.46;">
						<g>
							<g>
								<path style="fill:#FFFFFF;" d="M319.789,314.405c1.225-1.005,1.927-2.473,1.927-4.028c0-1.554-0.702-3.022-1.927-4.027
									c-0.163-0.134-0.405-0.113-0.542,0.046c-0.061,0.07-0.091,0.156-0.091,0.241c0,0.107,0.047,0.214,0.137,0.288
									c1.05,0.862,1.652,2.12,1.652,3.452c0,1.332-0.602,2.59-1.652,3.452c-0.09,0.074-0.137,0.181-0.137,0.288
									c0,0.085,0.029,0.171,0.09,0.241C319.384,314.518,319.627,314.538,319.789,314.405z"/>
								<path style="fill:#FFFFFF;" d="M320.177,310.377c0-1.11-0.502-2.159-1.376-2.877c-0.163-0.134-0.405-0.113-0.542,0.046
									c-0.06,0.07-0.09,0.156-0.09,0.242c0,0.107,0.047,0.214,0.137,0.288c0.7,0.575,1.102,1.414,1.102,2.301
									c0,0.888-0.401,1.727-1.102,2.301c-0.091,0.074-0.137,0.181-0.137,0.288c0,0.086,0.03,0.171,0.09,0.242
									c0.137,0.159,0.38,0.18,0.542,0.046C319.675,312.536,320.177,311.487,320.177,310.377z"/>
								<path style="fill:#FFFFFF;" d="M318.765,310.377c0-0.639-0.288-1.242-0.791-1.655c-0.156-0.128-0.389-0.108-0.52,0.044
									c-0.058,0.068-0.086,0.15-0.086,0.232c0,0.103,0.045,0.205,0.132,0.276c0.336,0.276,0.528,0.678,0.528,1.103
									c0,0.425-0.193,0.828-0.528,1.103c-0.087,0.071-0.132,0.173-0.132,0.276c0,0.082,0.028,0.164,0.086,0.232
									c0.131,0.153,0.364,0.172,0.52,0.044C318.476,311.62,318.765,311.016,318.765,310.377z"/>
								<path style="fill:#FFFFFF;" d="M316.236,311.079c-0.387,0-0.701-0.314-0.701-0.701c0-0.387,0.314-0.701,0.701-0.701
									c0.387,0,0.702,0.314,0.702,0.701C316.938,310.765,316.624,311.079,316.236,311.079z"/>
							</g>
						</g>
						<g>
							<g>
								<g>
									<path style="fill:#FFFFFF;" d="M315.791,409.512v-7.691c0-0.507,0.413-0.92,0.92-0.92h3.83c0.507,0,0.919,0.413,0.919,0.92
										v7.691c0,0.507-0.412,0.92-0.919,0.92h-3.83C316.204,410.432,315.791,410.019,315.791,409.512z M321.105,401.821
										c0-0.311-0.253-0.565-0.564-0.565h-3.83c-0.311,0-0.565,0.253-0.565,0.565v7.691c0,0.311,0.253,0.565,0.565,0.565h3.83
										c0.311,0,0.564-0.253,0.564-0.565V401.821z"/>
								</g>
							</g>
							<g>
								<path style="fill:#FFFFFF;" d="M317.016,411.605v-0.893c0-0.099,0.08-0.178,0.178-0.178h2.861
									c0.099,0,0.178,0.08,0.178,0.178v0.893c0,0.099-0.08,0.178-0.178,0.178h-2.862
									C317.096,411.784,317.016,411.704,317.016,411.605z"/>
							</g>
							<g>
								<path style="fill:#FFFFFF;" d="M319.749,402.771l-0.314-0.493l0.302-0.174l0.51,0.75v0.34h-2.847v-0.422H319.749z"/>
								<path style="fill:#FFFFFF;" d="M318.825,403.784c0.862,0,1.472,0.501,1.472,1.218c0,0.709-0.609,1.214-1.472,1.214
									c-0.867,0-1.476-0.505-1.476-1.214C317.349,404.286,317.958,403.784,318.825,403.784z M318.825,405.786
									c0.638,0,1.086-0.323,1.086-0.783c0-0.464-0.448-0.792-1.086-0.792c-0.638,0-1.09,0.328-1.09,0.792
									C317.735,405.463,318.187,405.786,318.825,405.786z"/>
								<path style="fill:#FFFFFF;" d="M318.825,406.661c0.862,0,1.472,0.501,1.472,1.218c0,0.709-0.609,1.214-1.472,1.214
									c-0.867,0-1.476-0.505-1.476-1.214C317.349,407.163,317.958,406.661,318.825,406.661z M318.825,408.663
									c0.638,0,1.086-0.323,1.086-0.783c0-0.464-0.448-0.792-1.086-0.792c-0.638,0-1.09,0.328-1.09,0.792
									C317.735,408.34,318.187,408.663,318.825,408.663z"/>
							</g>
						</g>
						<g>
							<path style="fill:#FFFFFF;" d="M318.625,344.149c-1.096,0-1.985-0.889-1.985-1.985c0-1.096,0.889-1.985,1.985-1.985
								c1.096,0,1.985,0.889,1.985,1.985C320.61,343.26,319.722,344.149,318.625,344.149z"/>
							<path style="fill:#EEE853;" d="M318.625,362.221c-1.096,0-1.985-0.889-1.985-1.985c0-1.096,0.889-1.985,1.985-1.985
								c1.096,0,1.985,0.889,1.985,1.985C320.61,361.332,319.722,362.221,318.625,362.221z"/>
							<path style="fill:#FFFFFF;" d="M318.625,380.293c-1.096,0-1.985-0.889-1.985-1.985c0-1.096,0.889-1.985,1.985-1.985
								c1.096,0,1.985,0.889,1.985,1.985C320.61,379.404,319.722,380.293,318.625,380.293z"/>
						</g>
					</g>
					<g>
						<g>
							
								<text transform="matrix(0 1 -1 0 287.4268 384.1813)" style="opacity:0.45;fill:#FFFFFF; font-family:'Metropolis-Light'; font-size:7.0149px;">NEW YORK</text>
							<g>
								<g>
									<path style="fill:#EEE853;" d="M291.779,374.778c0.058,0.003,0.117,0.004,0.176,0.005c2.514,0.035,4.326-2.307,3.897-4.745
										c-0.44-2.504-3.057-3.856-5.409-3.132c-0.826,0.255-1.54,0.701-2.301,1.093c-0.765,0.393-1.545,0.768-2.313,1.158
										c-0.91,0.461-1.82,0.923-2.73,1.384c-0.205,0.104-0.205,0.397,0,0.501c1.172,0.595,2.344,1.19,3.516,1.784
										C288.245,373.652,289.904,374.691,291.779,374.778z M289.393,370.79c0-1.287,1.043-2.33,2.33-2.33
										c1.287,0,2.33,1.043,2.33,2.33s-1.043,2.331-2.33,2.331C290.436,373.121,289.393,372.078,289.393,370.79z"/>
								</g>
							</g>
						</g>
						<g>
							
								<text transform="matrix(0 1 -1 0 255.355 389.904)" style="opacity:0.45;fill:#FFFFFF; font-family:'Metropolis-Light'; font-size:7.6224px;">82 BPM</text>
							<g>
								<g>
									<path style="fill:#D24B48;" d="M260.297,382.598c0,0,2.217-0.902,2.443-3.007c0.225-2.105-1.503-3.119-1.503-3.119
										s1.729-1.015,1.503-3.12c-0.226-2.105-2.443-3.007-2.443-3.007s-2.405-0.94-4.848,1.203
										c-2.443,2.142-3.871,4.924-3.871,4.924s1.428,2.781,3.871,4.923C257.892,383.537,260.297,382.598,260.297,382.598z"/>
								</g>
								<g>
									<g style="opacity:0.36;">
										<g>
											<path style="fill:#FFFFFF;" d="M247.773,376.471c0-5.382,4.378-9.76,9.76-9.76c5.382,0,9.761,4.379,9.761,9.76
												c0,5.382-4.379,9.761-9.761,9.761C252.151,386.232,247.773,381.853,247.773,376.471z M266.742,376.471
												c0-5.078-4.132-9.209-9.209-9.209c-5.078,0-9.209,4.131-9.209,9.209c0,5.078,4.131,9.209,9.209,9.209
												C262.611,385.681,266.742,381.549,266.742,376.471z"/>
										</g>
									</g>
									<g>
										<path style="fill:#D24B48;" d="M257.533,367.262c5.078,0,9.209,4.131,9.209,9.209c0,0.507-0.052,1.002-0.132,1.488h0.557
											c0.075-0.486,0.126-0.981,0.126-1.488c0-5.382-4.379-9.76-9.761-9.76c-1.828,0-3.534,0.514-4.998,1.392l0.105,0.58
											C254.06,367.788,255.735,367.262,257.533,367.262z"/>
									</g>
								</g>
							</g>
						</g>
						<g>
							<g>
								<path style="fill:#24ABFF;" d="M227.207,369.458c0.127-1.438-1.446-2.285-2.629-2.561c-1.272-0.296-2.58-0.208-3.848,0.042
									c-0.78,0.154-1.898,0.641-2.688,0.39c-0.791-0.252-1.761-0.337-2.573-0.128c-0.13,0.033-0.259,0.068-0.388,0.102
									c-1.61,0.414-1.481,2.664-0.205,3.398c0.993,0.571,2.235,0.065,3.27-0.105c1.566-0.256,2.554,0.697,4.005,0.989
									c1.134,0.229,2.755,0.194,3.801-0.337C226.636,370.901,227.138,370.233,227.207,369.458z"/>
								<path style="fill:#24ABFF;" d="M229.596,375.165c0.127,1.438-1.446,2.285-2.63,2.561c-1.272,0.296-2.58,0.208-3.848-0.042
									c-0.78-0.154-1.898-0.641-2.688-0.39c-0.791,0.252-1.761,0.337-2.573,0.128c-0.13-0.033-0.259-0.068-0.388-0.102
									c-1.609-0.414-1.48-2.664-0.205-3.398c0.993-0.571,2.235-0.065,3.27,0.105c1.566,0.256,2.554-0.697,4.005-0.99
									c1.134-0.229,2.754-0.194,3.801,0.337C229.026,373.722,229.527,374.39,229.596,375.165z"/>
							</g>
							
								<text transform="matrix(0 1 -1 0 219.5728 385.7438)" style="opacity:0.45;fill:#FFFFFF; font-family:'Metropolis-Light'; font-size:7.6224px;">820/1400</text>
						</g>
					</g>
					<g style="opacity:0.09;">
						<g>
							<polygon style="fill:#FFFFFF;" points="327.253,334.378 277.097,284.222 259.862,284.222 327.253,351.613 							"/>
						</g>
						<g>
							<polygon style="fill:#FFFFFF;" points="327.253,361.834 249.641,284.222 225.691,284.222 327.253,385.784 							"/>
						</g>
						<g>
							<polygon style="fill:#FFFFFF;" points="292.526,433.823 182.557,323.854 182.557,341.089 275.291,433.823 							"/>
						</g>
						<g>
							<polygon style="fill:#FFFFFF;" points="265.07,433.823 182.557,351.309 182.557,375.26 241.12,433.823 							"/>
						</g>
					</g>
				</g>
			</g>
		</g>
	</g>
</g>
</svg>
